Coordinates
version=1
nRows=38
nColumns=12
inDegrees=yes

Units are S.I. units (second, meters, Newtons, ...)
Angles are in degrees

endheader
time	SC_y	SC_z	SC_x	AC_y	AC_z	AC_x	GH_y	GH_z	GH_yy	EL_x	PS_y
       0.0              -43.49           28.4          13.76          48.61         -12.17         -16.33          68.24          18.52          -51.7          93.24          99.02
  0.001682               -43.5           28.4          13.76          48.61         -12.17         -16.33          68.22          18.52         -51.66          93.24           99.0
  0.003364               -43.5           28.4          13.76          48.61         -12.17         -16.32           68.2          18.53         -51.63          93.24          98.99
  0.005046               -43.5           28.4          13.76          48.61         -12.16         -16.32          68.18          18.53         -51.59          93.24          98.98
  0.006728               -43.5           28.4          13.76          48.61         -12.16         -16.32          68.16          18.54         -51.55          93.24          98.96
   0.00841               -43.5           28.4          13.76          48.61         -12.16         -16.31          68.14          18.54         -51.51          93.24          98.94
   0.01009               -43.5           28.4          13.77           48.6         -12.16         -16.31          68.12          18.55         -51.46          93.24          98.93
   0.01177               -43.5           28.4          13.77           48.6         -12.15          -16.3           68.1          18.55         -51.41          93.24          98.91
   0.01346               -43.5          28.41          13.77           48.6         -12.15          -16.3          68.07          18.56         -51.36          93.24          98.89
   0.01514               -43.5          28.41          13.77           48.6         -12.15         -16.29          68.05          18.56          -51.3          93.24          98.87
   0.01682               -43.5          28.41          13.77           48.6         -12.14         -16.29          68.02          18.57         -51.24          93.24          98.85
    0.0185               -43.5          28.41          13.77           48.6         -12.14         -16.28          67.99          18.58         -51.18          93.24          98.82
   0.02018               -43.5          28.41          13.77           48.6         -12.14         -16.28          67.95          18.59         -51.11          93.24           98.8
   0.02186               -43.5          28.42          13.77           48.6         -12.13         -16.27          67.92           18.6         -51.03          93.24          98.77
   0.02355               -43.5          28.42          13.77           48.6         -12.13         -16.26          67.88           18.6         -50.95          93.24          98.74
   0.02523               -43.5          28.42          13.77          48.59         -12.12         -16.25          67.84          18.61         -50.86          93.25           98.7
   0.02691               -43.5          28.42          13.77          48.59         -12.12         -16.25          67.79          18.63         -50.77          93.25          98.67
   0.02859               -43.5          28.43          13.78          48.59         -12.11         -16.24          67.74          18.64         -50.66          93.25          98.63
   0.03027               -43.5          28.43          13.78          48.59         -12.11         -16.23          67.68          18.65         -50.54          93.25          98.58
   0.03196               -43.5          28.44          13.78          48.59          -12.1         -16.22          67.62          18.67         -50.42          93.25          98.54
   0.03364               -43.5          28.44          13.78          48.59         -12.09          -16.2          67.56          18.68         -50.28          93.25          98.49
   0.03532              -43.51          28.45          13.78          48.58         -12.08         -16.19          67.49           18.7         -50.13          93.25          98.43
     0.037              -43.51          28.45          13.78          48.58         -12.07         -16.17          67.41          18.72         -49.96          93.25          98.37
   0.03868              -43.51          28.46          13.79          48.58         -12.06         -16.16          67.32          18.74         -49.77          93.25           98.3
   0.04037              -43.51          28.46          13.79          48.57         -12.05         -16.14          67.22          18.76         -49.57          93.25          98.22
   0.04205              -43.51          28.47          13.79          48.57         -12.04         -16.12          67.11          18.79         -49.34          93.25          98.13
   0.04373              -43.51          28.48          13.79          48.57         -12.03          -16.1          66.98          18.82         -49.08          93.26          98.04
   0.04541              -43.52          28.49           13.8          48.56         -12.01         -16.07          66.84          18.85         -48.79          93.26          97.93
   0.04709              -43.52           28.5           13.8          48.55         -11.99         -16.04          66.69          18.89         -48.46          93.26          97.81
   0.04878              -43.52          28.51          13.81          48.55         -11.97         -16.01          66.51          18.93         -48.08          93.26          97.67
   0.05046              -43.52          28.52          13.81          48.54         -11.95         -15.97          66.31          18.98         -47.66          93.26          97.51
   0.05214              -43.53          28.54          13.82          48.53         -11.92         -15.93          66.07          19.04         -47.17          93.27          97.32
   0.05382              -43.53          28.56          13.83          48.52         -11.89         -15.88           65.8           19.1          -46.6          93.27          97.11
    0.0555              -43.54          28.58          13.83          48.51         -11.85         -15.82          65.49          19.18         -45.95          93.27          96.87
   0.05718              -43.54           28.6          13.84           48.5         -11.81         -15.75          65.12          19.27         -45.18          93.28          96.58
   0.05887              -43.55          28.63          13.86          48.49         -11.76         -15.67          64.69          19.37         -44.28          93.28          96.24
   0.06055              -43.56          28.66          13.87          48.47          -11.7         -15.58          64.18          19.49          -43.2          93.29          95.84
   0.06223              -43.56           28.7          13.88          48.45         -11.63         -15.46          63.56          19.64         -41.91           93.3          95.36
